<?xml version="1.0" encoding="iso-8859-1"?>
<!-- Generator: Adobe Illustrator 19.0.0, SVG Export Plug-In . SVG Version: 6.00 Build 0)  -->
<svg version="1.1" id="Capa_1" xmlns="http://www.w3.org/2000/svg" xmlns:xlink="http://www.w3.org/1999/xlink" x="0px" y="0px"
	 viewBox="0 0 512.001 512.001" style="enable-background:new 0 0 512.001 512.001;" xml:space="preserve">
<g>
	<g>
		<path d="M497,411.148H150.5c-66.444,0-120.5-54.056-120.5-120.5s54.056-120.5,120.5-120.5h309.975l-42.692,42.87
			c-5.846,5.87-5.826,15.368,0.044,21.214c5.87,5.846,15.367,5.825,21.213-0.044l66.292-66.568c4.02-2.691,6.669-7.271,6.669-12.472
			c0-0.069-0.009-0.136-0.01-0.205c0.056-3.9-1.392-7.818-4.361-10.8l-68.589-68.875c-5.846-5.869-15.343-5.89-21.213-0.044
			s-5.89,15.344-0.044,21.214l43.529,43.71H150.5c-82.986,0-150.5,67.514-150.5,150.5s67.514,150.5,150.5,150.5H497
			c8.284,0,15-6.716,15-15S505.284,411.148,497,411.148z"/>
	</g>
</g>
<g>
</g>
<g>
</g>
<g>
</g>
<g>
</g>
<g>
</g>
<g>
</g>
<g>
</g>
<g>
</g>
<g>
</g>
<g>
</g>
<g>
</g>
<g>
</g>
<g>
</g>
<g>
</g>
<g>
</g>
</svg>
